<svg width="22" height="22" viewBox="0 0 22 22" fill="none" xmlns="http://www.w3.org/2000/svg">
<path d="M7.17769 9.22396C7.68815 9.22396 8.10244 8.81329 8.10244 8.30729V4.73229C8.10244 3.13408 9.41421 1.83333 11.0265 1.83333C12.6388 1.83333 13.9511 3.13408 13.9511 4.73229V8.30729C13.9511 8.81329 14.3649 9.22396 14.8758 9.22396C15.3863 9.22396 15.8006 8.81329 15.8006 8.30729V4.73229C15.801 2.123 13.6593 0 11.0265 0C8.39467 0 6.25293 2.123 6.25293 4.73229V8.30729C6.25293 8.81329 6.66722 9.22396 7.17769 9.22396Z" fill="#595959"/>
<path d="M21.6347 7.16418H17.8692C17.2379 7.16418 16.7261 7.67596 16.7261 8.30727C16.7261 9.31835 15.8966 10.1406 14.8766 10.1406C13.8566 10.1406 13.0271 9.31835 13.0271 8.30727C13.0271 7.67596 12.5153 7.16418 11.884 7.16418H10.171C9.53972 7.16418 9.02794 7.67596 9.02794 8.30727C9.02794 9.31835 8.19844 10.1406 7.17843 10.1406C6.15842 10.1406 5.32892 9.31835 5.32892 8.30727C5.32892 7.67596 4.81714 7.16418 4.18583 7.16418H0.365283C0.110051 7.16418 -0.0476206 7.36356 0.012951 7.60923L3.24868 20.6703C3.4438 21.4046 4.22337 22 4.98907 22H17.0109C17.7775 22 18.5562 21.4046 18.7522 20.6703L21.987 7.60923C22.0476 7.3631 21.8904 7.16418 21.6347 7.16418Z" fill="#595959"/>
</svg>
