<svg width="79" height="36" viewBox="0 0 79 36" fill="none" xmlns="http://www.w3.org/2000/svg">
<path d="M0 9C0 4.02944 4.02944 0 9 0H79V34H9C4.02944 34 0 29.9706 0 25V9Z" fill="#EAC267"/>
<path d="M23.9746 23L28.7695 15.9395V15.8711L24.0332 8.9082H26.1523L29.9121 14.5723H29.9805L33.7891 8.9082H35.791L30.9277 15.959V16.0176L35.6836 23H33.5742L29.834 17.3848H29.7656L25.9668 23H23.9746ZM39.1992 23H37.5195V12.8438H39.1992V20.4023H39.2773L44.3555 12.8438H46.0352V23H44.3555V15.4414H44.2773L39.1992 23ZM55.8496 12.8438V14.2402H52.5684V23H50.8887V14.2402H47.6074V12.8438H55.8496ZM58.0176 8.9082H59.7754L59.6582 18.3223H58.1348L58.0176 8.9082ZM58.8965 23.0977C58.584 23.0977 58.3203 22.9902 58.1055 22.7754C57.8906 22.5605 57.7832 22.2969 57.7832 21.9844C57.7832 21.6654 57.8906 21.4017 58.1055 21.1934C58.3203 20.9785 58.584 20.8711 58.8965 20.8711C59.2155 20.8711 59.4792 20.9785 59.6875 21.1934C59.9023 21.4017 60.0098 21.6654 60.0098 21.9844C60.0098 22.2969 59.9023 22.5605 59.6875 22.7754C59.4792 22.9902 59.2155 23.0977 58.8965 23.0977Z" fill="white"/>
<path d="M76 34H79L77.5 35L76 36V34Z" fill="#F5C965"/>
</svg>
