<svg width="87" height="36" viewBox="0 0 87 36" fill="none" xmlns="http://www.w3.org/2000/svg">
<path d="M0 9C0 4.02944 4.02944 0 9 0H87V34H9C4.02944 34 0 29.9706 0 25V9Z" fill="#F77070"/>
<path d="M21.9375 23.2109C20.1855 23.2109 18.7939 22.6221 17.7627 21.4443C16.7373 20.2607 16.2246 18.6641 16.2246 16.6543C16.2246 14.6621 16.7432 13.0742 17.7803 11.8906C18.8174 10.7012 20.2031 10.1064 21.9375 10.1064C23.2852 10.1064 24.4336 10.4756 25.3828 11.2139C26.3379 11.9463 26.9326 12.9219 27.167 14.1406H25.5498C25.3213 13.3555 24.8789 12.7314 24.2227 12.2686C23.5664 11.7998 22.8047 11.5654 21.9375 11.5654C20.7012 11.5654 19.7109 12.0283 18.9668 12.9541C18.2227 13.8799 17.8506 15.1133 17.8506 16.6543C17.8506 18.2129 18.2197 19.4521 18.958 20.3721C19.6963 21.292 20.6924 21.752 21.9463 21.752C22.8428 21.752 23.6045 21.5527 24.2314 21.1543C24.8584 20.7559 25.2979 20.1934 25.5498 19.4668H27.167C26.8564 20.6738 26.25 21.5996 25.3477 22.2441C24.4453 22.8887 23.3086 23.2109 21.9375 23.2109ZM32.0713 18.1836L36.4658 23H34.4971L30.5508 18.6055H30.4805V23H28.9688V13.8594H30.4805V17.9023H30.5508L34.4531 13.8594H36.3428L32.0713 18.1836ZM39.252 23H37.7402V13.8594H39.252V20.6621H39.3223L43.8926 13.8594H45.4043V23H43.8926V16.1973H43.8223L39.252 23ZM53.6133 21.7432V15.1162H50.1855L49.9043 18.9658C49.8164 20.2197 49.5674 21.1221 49.1572 21.6729V21.7432H53.6133ZM48.0674 25.417H46.6436V21.7432H47.4082C48.0234 21.3389 48.3838 20.4014 48.4893 18.9307L48.8408 13.8594H55.1338V21.7432H56.584V25.417H55.1602V23H48.0674V25.417ZM61.0576 18.1836L65.4521 23H63.4834L59.5371 18.6055H59.4668V23H57.9551V13.8594H59.4668V17.9023H59.5371L63.4395 13.8594H65.3291L61.0576 18.1836ZM69.4863 21.8574C70.207 21.8574 70.8105 21.6348 71.2969 21.1895C71.7891 20.7383 72.0352 20.1846 72.0352 19.5283V18.7812L69.5918 18.9307C68.9766 18.9717 68.499 19.1211 68.1592 19.3789C67.8252 19.6367 67.6582 19.9824 67.6582 20.416C67.6582 20.8496 67.8252 21.1982 68.1592 21.4619C68.4932 21.7256 68.9355 21.8574 69.4863 21.8574ZM69.1436 23.1582C68.2354 23.1582 67.5 22.9062 66.9375 22.4023C66.3809 21.8984 66.1025 21.2363 66.1025 20.416C66.1025 19.6309 66.3896 19.0039 66.9639 18.5352C67.5439 18.0664 68.3613 17.8027 69.416 17.7441L72.0352 17.5947V16.8301C72.0352 16.2734 71.8594 15.8369 71.5078 15.5205C71.1562 15.2041 70.6641 15.0459 70.0312 15.0459C69.4512 15.0459 68.9795 15.1748 68.6162 15.4326C68.2529 15.6846 68.0215 16.0391 67.9219 16.4961H66.4453C66.498 15.6816 66.8496 15.0137 67.5 14.4922C68.1562 13.9648 69.0117 13.7012 70.0664 13.7012C71.1387 13.7012 71.9883 13.9707 72.6152 14.5098C73.248 15.0488 73.5645 15.7725 73.5645 16.6807V23H72.1143V21.4268H72.0791C71.8037 21.9482 71.3994 22.3672 70.8662 22.6836C70.333 23 69.7588 23.1582 69.1436 23.1582Z" fill="white"/>
<path d="M84 34H87L85.5 35L84 36V34Z" fill="#DA5959"/>
</svg>
