<svg width="87" height="36" viewBox="0 0 87 36" fill="none" xmlns="http://www.w3.org/2000/svg">
<path d="M0 9C0 4.02944 4.02944 0 9 0H87V34H9C4.02944 34 0 29.9706 0 25V9Z" fill="#66AC45"/>
<path d="M30.9453 23H29.3809V10.3174H30.9189L37.8623 20.2754H37.9414V10.3174H39.5059V23H37.9678L31.0244 13.0771H30.9453V23ZM45.3945 15.0283C44.6855 15.0283 44.0967 15.2744 43.6279 15.7666C43.165 16.2529 42.9102 16.8799 42.8633 17.6475H47.8291C47.8115 16.874 47.5801 16.2441 47.1348 15.7578C46.6895 15.2715 46.1094 15.0283 45.3945 15.0283ZM47.7939 20.3809H49.2969C49.1621 21.1895 48.7402 21.8545 48.0312 22.376C47.3281 22.8975 46.4814 23.1582 45.4912 23.1582C44.1846 23.1582 43.1562 22.7363 42.4062 21.8926C41.6562 21.0488 41.2812 19.9062 41.2812 18.4648C41.2812 17.0352 41.6562 15.8838 42.4062 15.0107C43.1621 14.1377 44.167 13.7012 45.4209 13.7012C46.6514 13.7012 47.624 14.1143 48.3389 14.9404C49.0537 15.7666 49.4111 16.874 49.4111 18.2627V18.8428H42.8545V18.9307C42.8545 19.8096 43.0947 20.5127 43.5752 21.04C44.0557 21.5674 44.7061 21.8311 45.5264 21.8311C46.1006 21.8311 46.5898 21.6992 46.9941 21.4355C47.3984 21.1719 47.665 20.8203 47.7939 20.3809ZM62.5859 13.8594L60.0371 23H58.4814L56.416 15.9248H56.3809L54.3242 23H52.7686L50.2109 13.8594H51.7314L53.5596 21.2949H53.5947L55.6602 13.8594H57.1367L59.2109 21.2949H59.2461L61.0742 13.8594H62.5859Z" fill="white"/>
<path d="M84 34H87L85.5 35L84 36V34Z" fill="#609845"/>
</svg>
