<svg width="155" height="39" viewBox="0 0 155 39" fill="none" xmlns="http://www.w3.org/2000/svg">
<path d="M32.1563 31.8286V34.6892C32.1563 35.7576 32.135 36.6516 32.0754 37.5583L32.1052 37.5668C32.4415 36.8602 32.8715 36.128 33.3738 35.3192L35.6044 31.8243H36.494V38.614H35.6554V35.7236C35.6554 34.6253 35.6639 33.8208 35.7363 32.9652L35.7065 32.9567C35.3702 33.7016 34.8977 34.4891 34.4252 35.2341L32.267 38.6182H31.3135V31.8286H32.1563Z" fill="#E1C876"/>
<path d="M38.9415 31.8286V34.6679H42.2789V31.8286H43.1813V38.6182H42.2789V35.4341H38.9415V38.6182H38.0391V31.8286H38.9415Z" fill="#E1C876"/>
<path d="M46.0376 32.5735H43.939V31.8286H49.0471V32.5735H46.94V38.6182H46.0376V32.5735Z" fill="#E1C876"/>
<path d="M53.3765 35.4341H50.7032V37.8818H53.6915V38.6182H49.8008V31.8286H53.5383V32.565H50.7032V34.7105H53.3765V35.4341Z" fill="#E1C876"/>
<path d="M54.8496 31.9095C55.2795 31.8371 55.8415 31.7775 56.5609 31.7775C57.442 31.7775 58.0848 31.9776 58.4934 32.3437C58.8638 32.6672 59.0979 33.161 59.0979 33.7655C59.0979 34.3784 58.9149 34.8637 58.5658 35.217C58.0848 35.7108 57.3271 35.962 56.4587 35.962C56.1948 35.962 55.9479 35.9535 55.7435 35.9024V38.6225H54.8539V31.9095H54.8496ZM55.7435 35.183C55.9394 35.2341 56.182 35.2553 56.48 35.2553C57.5527 35.2553 58.2082 34.7318 58.2082 33.8165C58.2082 32.9098 57.5527 32.4756 56.5821 32.4756C56.1948 32.4756 55.8968 32.5054 55.7435 32.548V35.183Z" fill="#E1C876"/>
<path d="M61.1876 31.8286V34.6679H64.5249V31.8286H65.4274V38.6182H64.5249V35.4341H61.1876V38.6182H60.2852V31.8286H61.1876Z" fill="#E1C876"/>
<path d="M70.5318 35.4341H67.8585V37.8818H70.8468V38.6182H66.9561V31.8286H70.6935V32.565H67.8585V34.7105H70.5318V35.4341Z" fill="#E1C876"/>
<path d="M73.3706 32.5735H71.272V31.8286H76.3802V32.5735H74.273V38.6182H73.3706V32.5735Z" fill="#E1C876"/>
<path d="M85.1326 35.6384C85.0815 34.6934 85.0219 33.5441 85.0219 32.7055H85.0007C84.7538 33.493 84.4771 34.3486 84.1323 35.2851L82.9148 38.5799H82.238L81.1099 35.3447C80.7822 34.3784 80.5182 33.51 80.3224 32.7055H80.3011C80.2798 33.5526 80.2288 34.6807 80.1692 35.7065L79.9861 38.6182H79.1348L79.6158 31.8286H80.7524L81.9315 35.1106C82.2167 35.9449 82.4423 36.6941 82.6296 37.3965H82.6509C82.8339 36.7112 83.0808 35.9662 83.3873 35.1106L84.6176 31.8286H85.7541L86.1841 38.6182H85.3029L85.1326 35.6384Z" fill="#E1C876"/>
<path d="M88.5804 36.4813L87.8653 38.6182H86.9458L89.2998 31.8286H90.364L92.7181 38.6182H91.7645L91.0281 36.4813H88.5804ZM90.8536 35.7959L90.1682 33.8421C90.015 33.3994 89.9128 32.995 89.8106 32.6033H89.7894C89.6872 32.995 89.585 33.4206 89.4403 33.8335L88.7635 35.7959H90.8536Z" fill="#E1C876"/>
<path d="M97.3962 31.8286V32.565H94.6207V38.6182H93.7183V31.8286H97.3962Z" fill="#E1C876"/>
<path d="M98.4476 36.4813L97.7325 38.6182H96.813L99.167 31.8286H100.231L102.585 38.6182H101.632L100.895 36.4813H98.4476ZM100.721 35.7959L100.035 33.8421C99.8822 33.3994 99.78 32.995 99.6778 32.6033H99.6565C99.5544 32.995 99.4522 33.4206 99.3075 33.8335L98.6306 35.7959H100.721Z" fill="#E1C876"/>
<path d="M103.432 32.2202C103.905 31.918 104.496 31.7051 105.254 31.7051C106.45 31.7051 107.28 32.3181 107.28 33.3696C107.28 34.2039 106.655 34.8509 105.859 35.034V35.0553C106.821 35.1574 107.536 35.7789 107.549 36.758C107.549 38.167 106.301 38.7332 105.041 38.7332C104.416 38.7332 103.773 38.6012 103.241 38.2904L103.475 37.6051C103.854 37.8179 104.458 38.018 105.033 38.018C106.046 38.018 106.608 37.4731 106.608 36.7282C106.608 35.7108 105.616 35.4171 104.735 35.4171H104.326V34.753H104.726C105.637 34.753 106.352 34.1996 106.352 33.5058C106.352 32.8119 105.85 32.4288 105.114 32.4288C104.582 32.4288 104.05 32.6416 103.671 32.8715L103.432 32.2202Z" fill="#E1C876"/>
<path d="M109.575 31.8286V34.6892C109.575 35.7576 109.554 36.6516 109.494 37.5583L109.524 37.5668C109.86 36.8602 110.29 36.128 110.793 35.3192L113.023 31.8243H113.913V38.614H113.074V35.7236C113.074 34.6253 113.083 33.8208 113.155 32.9652L113.125 32.9567C112.789 33.7016 112.317 34.4891 111.844 35.2341L109.686 38.6182H108.732V31.8286H109.575Z" fill="#E1C876"/>
<path d="M116.365 31.8286V34.6679H119.702V31.8286H120.605V38.6182H119.702V35.4341H116.365V38.6182H115.462V31.8286H116.365Z" fill="#E1C876"/>
<path d="M7.48817 6.41112C6.38566 6.59842 6.10471 6.91342 5.53429 6.91342C4.65313 6.91342 2.13309 5.74706 2.13309 5.24475C2.13309 5.1511 2.2608 5.08725 2.4481 5.08725C2.6056 5.08725 2.82695 5.11705 3.07811 5.1809C3.89542 5.40225 5.44064 5.46611 7.13911 5.46611C9.09299 5.46611 11.2001 5.37246 12.6815 5.24475C13.3115 5.1809 13.154 5.05745 13.784 5.05745C14.414 5.05745 15.7975 5.18516 15.7975 5.59381C15.7975 5.81517 15.4186 6.13017 15.1973 6.60268C12.1451 11.8939 8.68008 15.8272 1.50308 19.7648C0.843276 20.0798 0.434622 20.2075 0.243065 20.2075C0.179212 20.2075 0.149414 20.2075 0.149414 20.1777C0.149414 20.05 0.528271 19.7052 1.28173 19.2327C7.19871 15.2994 11.2938 10.5104 13.0561 6.19828L7.48817 6.41112ZM9.44205 21.459C9.3484 20.6715 8.78224 20.4842 7.58608 19.918C7.14337 19.7903 6.83262 19.6328 6.83262 19.4753C6.83262 19.3476 7.08377 19.1901 7.77764 19.0964C9.28881 19.1901 11.0511 19.5051 11.7109 19.7265L20.4928 19.569C21.2462 19.5051 21.2803 19.2539 22.0337 19.2539C22.6637 19.2539 23.8897 19.4412 23.8897 19.8201C23.8897 20.0415 23.5747 20.3224 23.481 20.6374C22.851 23.0297 22.1572 26.1798 21.9997 27.0908C23.0383 27.1844 23.5406 27.4994 23.5406 27.7846C23.5406 28.0698 23.0043 28.3508 22.0295 28.3508H11.5492C11.264 29.5469 10.8894 30.2706 10.5403 30.2706C10.2253 30.2706 9.97415 29.7683 9.84645 28.5721L9.44205 21.459ZM11.8982 20.514C11.8344 20.6076 11.4896 20.6715 11.4896 21.0163L11.5534 27.5633L18.8879 27.4994C20.0543 27.4058 19.8968 27.3419 20.8716 27.1546L21.3441 20.3522L11.8982 20.514ZM21.4676 3.86128C21.4676 3.29513 20.4928 2.57147 18.7304 1.9074C18.1941 1.7201 17.9131 1.52855 17.9131 1.37104C17.9131 1.18374 18.292 1.05604 19.0454 0.992188C19.2029 0.992188 23.579 1.55835 23.579 2.53316C23.579 2.75451 23.4512 3.03546 23.4512 3.44412V12.4558C23.4512 13.7797 23.3235 15.6654 22.9489 16.802C22.6637 17.5257 22.3189 17.9045 22.0337 17.9045C21.7485 17.9045 21.5314 17.4618 21.5314 16.4572L21.4676 3.86128Z" fill="#333333"/>
<path d="M148.768 8.18622H133.358C130 8.18622 130.242 10.9063 130.242 14.265C130.242 17.6236 130.004 20.3437 133.358 20.3437H148.768C152.126 20.3437 154.847 17.6236 154.847 14.265C154.847 10.9063 152.126 8.18622 148.768 8.18622ZM137.389 18.5345C136.947 18.5345 136.644 18.2238 136.644 17.8322C136.644 17.4533 136.947 17.0787 137.389 17.0787C137.789 17.0787 138.092 17.4576 138.092 17.8322C138.092 18.2238 137.789 18.5345 137.389 18.5345ZM142.821 18.492L140.88 15.0312V18.492H139.143V10.4296H140.88C140.88 12.3707 140.88 13.2774 140.837 13.6222L142.834 10.4296H144.817L142.349 14.4735L144.86 18.4962H142.821V18.492ZM150.585 11.7109L147.491 16.768C147.504 16.7552 147.512 16.7552 147.533 16.7552H150.585V18.492H145.409V17.1894L148.512 12.1663H145.409V10.4296H150.585V11.7109Z" fill="url(#paint0_linear)"/>
<path d="M121.763 0.647383C114.633 0.719749 108.758 6.39409 108.315 13.4136H114.071C114.501 9.46326 117.876 6.38558 121.903 6.38558C126.288 6.38558 129.749 9.91448 129.749 14.265C129.749 18.5431 126.288 22.1103 121.903 22.1103C120.575 22.1103 119.319 21.774 118.217 21.1823V27.3845C119.387 27.708 120.622 27.8868 121.903 27.8868C129.425 27.8868 135.525 21.8251 135.525 14.265C135.525 6.65801 129.348 0.57076 121.763 0.647383Z" fill="#333333"/>
<path d="M30.5391 0.932617C34.2382 0.932617 37.235 3.52076 37.218 6.69635C37.2052 9.30153 37.1669 10.7659 37.0605 11.4853L44.7441 0.932617C48.0899 0.932617 50.146 4.07841 48.4007 6.53034L42.8753 14.3033L48.3922 21.8889C50.2013 24.3792 48.1197 27.6059 44.7015 27.6059L37.2265 16.1593V27.6059H30.5391V0.932617Z" fill="url(#paint1_linear)"/>
<path d="M57.7654 3.80171V27.6016H52.0229V3.80171C52.0229 2.21818 53.3085 0.932617 54.892 0.932617C56.4798 0.932617 57.7654 2.21392 57.7654 3.80171Z" fill="url(#paint2_linear)"/>
<path d="M87.5972 5.14685V27.5973H81.8931V10.4849C81.7526 11.4853 81.2844 13.8733 76.1506 27.5973H71.8385L66.4195 12.3749V27.5973H60.5366V5.14685C60.5366 2.81837 62.4224 0.928345 64.7551 0.928345C65.6406 0.928345 66.4791 1.20504 67.1687 1.69031C67.8626 2.17559 68.4117 2.86945 68.714 3.69953L74.0137 18.1855L79.3092 3.69953C79.9179 2.03512 81.5015 0.928345 83.2723 0.928345H83.3787C85.7072 0.928345 87.5972 2.81837 87.5972 5.14685Z" fill="url(#paint3_linear)"/>
<path d="M116.944 16.0911V26.946C116.944 28.4401 115.722 29.7513 114.228 29.7385C113.491 29.7342 112.823 29.432 112.342 28.951C111.853 28.4614 111.555 27.7889 111.555 27.0439V24.8559C109.307 26.2564 105.991 27.8868 102.9 27.8868C95.3233 27.8868 89.2488 21.7953 89.2829 14.2053C89.3169 6.2536 96.2896 -0.0124348 104.207 0.702711C108.596 1.0986 111.218 3.39728 111.674 3.85276L108.179 8.38201C106.608 7.13477 104.756 6.42388 102.934 6.38557C98.4776 6.56435 95.021 9.88042 95.021 14.2649C95.021 18.5473 98.4095 22.0762 102.934 22.1103C103.884 22.1103 105.633 21.1652 107.31 20.0798H104.693C103.198 20.0798 101.887 18.858 101.9 17.3639C101.904 16.6275 102.207 15.9592 102.688 15.4781C103.173 14.9886 103.845 14.6906 104.59 14.6906H115.543C116.314 14.6864 116.944 15.3164 116.944 16.0911Z" fill="#333333"/>
<defs>
<linearGradient id="paint0_linear" x1="142.541" y1="20.3437" x2="142.541" y2="8.18601" gradientUnits="userSpaceOnUse">
<stop stop-color="#E4B855"/>
<stop offset="1" stop-color="#FCDE9A"/>
</linearGradient>
<linearGradient id="paint1_linear" x1="39.7973" y1="27.6014" x2="39.7973" y2="0.930745" gradientUnits="userSpaceOnUse">
<stop stop-color="#E4B855"/>
<stop offset="1" stop-color="#FCDE9A"/>
</linearGradient>
<linearGradient id="paint2_linear" x1="54.8939" y1="27.6014" x2="54.8939" y2="0.930745" gradientUnits="userSpaceOnUse">
<stop stop-color="#E4B855"/>
<stop offset="1" stop-color="#FCDE9A"/>
</linearGradient>
<linearGradient id="paint3_linear" x1="74.0667" y1="27.6" x2="74.0667" y2="0.92975" gradientUnits="userSpaceOnUse">
<stop stop-color="#E4B855"/>
<stop offset="1" stop-color="#FCDE9A"/>
</linearGradient>
</defs>
</svg>
