<svg width="30" height="30" viewBox="0 0 30 30" fill="none" xmlns="http://www.w3.org/2000/svg">
<circle cx="15" cy="15" r="15" fill="#EAC166"/>
<path d="M11.5253 13.3854C11.9893 13.3854 12.3659 13.0121 12.3659 12.5521V9.30208C12.3659 7.84917 13.5585 6.66667 15.0242 6.66667C16.4899 6.66667 17.6829 7.84917 17.6829 9.30208V12.5521C17.6829 13.0121 18.0591 13.3854 18.5236 13.3854C18.9876 13.3854 19.3643 13.0121 19.3643 12.5521V9.30208C19.3647 6.93 17.4176 5 15.0242 5C12.6316 5 10.6846 6.93 10.6846 9.30208V12.5521C10.6846 13.0121 11.0612 13.3854 11.5253 13.3854Z" fill="white"/>
<path d="M24.6679 11.5129H21.2447C20.6708 11.5129 20.2055 11.9781 20.2055 12.552C20.2055 13.4712 19.4514 14.2187 18.5242 14.2187C17.5969 14.2187 16.8428 13.4712 16.8428 12.552C16.8428 11.9781 16.3775 11.5129 15.8036 11.5129H14.2464C13.6725 11.5129 13.2072 11.9781 13.2072 12.552C13.2072 13.4712 12.4531 14.2187 11.5258 14.2187C10.5986 14.2187 9.84447 13.4712 9.84447 12.552C9.84447 11.9781 9.37922 11.5129 8.8053 11.5129H5.33208C5.10005 11.5129 4.95671 11.6941 5.01177 11.9175L7.95334 23.7912C8.13073 24.4587 8.83943 25 9.53552 25H20.4645C21.1614 25 21.8692 24.4587 22.0475 23.7912L24.9882 11.9175C25.0433 11.6937 24.9004 11.5129 24.6679 11.5129Z" fill="white"/>
</svg>
