<svg width="123" height="123" viewBox="0 0 123 123" fill="none" xmlns="http://www.w3.org/2000/svg">
<rect width="123" height="123" rx="20" fill="#E2DFDF"/>
<path d="M97.3284 69.5086L82.7578 46.6019C82.3036 45.8102 81.2963 45.5387 80.5096 45.9962L46.4244 65.7676C45.636 66.2251 45.3678 67.2406 45.822 68.0323L60.2691 91.0624C60.7234 91.8541 61.7306 92.1256 62.5173 91.6681L96.726 71.7732C97.5127 71.3157 97.7826 70.3035 97.3284 69.5086Z" fill="#E6BB5B"/>
<path d="M53.289 83.6631H26.9557C26.0472 83.6631 25.3098 84.3922 25.3098 85.3089C25.3098 86.2256 26.0472 86.9547 26.9557 86.9547H53.289C54.1975 86.9547 54.9348 86.2256 54.9348 85.3089C54.9348 84.3922 54.1975 83.6631 53.289 83.6631ZM28.6015 78.7256C28.6015 79.6423 29.3388 80.3714 30.2473 80.3714H49.9973C50.9058 80.3714 51.6432 79.6423 51.6432 78.7256C51.6432 77.8088 50.9058 77.0797 49.9973 77.0797H30.2473C29.3372 77.0797 28.6015 77.8088 28.6015 78.7256ZM33.539 70.4964H26.9557C26.0472 70.4964 25.3098 71.2255 25.3098 72.1422C25.3098 73.059 26.0472 73.7881 26.9557 73.7881H33.539C34.4475 73.7881 35.1848 73.059 35.1848 72.1422C35.1848 71.2255 34.4475 70.4964 33.539 70.4964ZM97.501 65.3235L89.1484 51.0295C89.4759 50.9258 89.7919 50.7908 90.0865 50.6246C90.8815 50.1704 91.5398 49.5268 91.9792 48.9278C92.8993 47.672 92.9289 46.5117 92.7923 45.7579C92.7791 45.6838 92.7627 45.6098 92.7462 45.5373C92.9075 45.4633 93.0754 45.3744 93.2251 45.2905C94.6652 44.4511 95.6593 42.9698 95.819 41.4195C96.0313 39.3408 94.8167 37.4629 93.2975 36.24C94.1781 33.8388 94.392 31.2844 93.9312 28.6264C93.5197 26.2482 92.422 22.1204 89.7179 21.2053C89.2488 21.0457 88.7337 21.0753 88.3205 21.3535C87.9042 21.6036 87.6227 22.0299 87.5503 22.5154L87.4499 23.2593C87.2985 24.4427 87.2425 24.8838 86.5348 25.6672C85.8189 26.4555 84.9663 27.2274 83.9229 28.0273C81.7998 29.6468 79.5664 31.1314 77.2787 32.4349C75.1127 33.6709 72.6588 35.0715 71.2434 37.5699C69.9086 39.9267 69.6749 42.3806 70.4567 44.772L55.631 53.2283C53.9259 51.3636 51.6563 50.3366 48.9259 50.302C46.0259 50.2642 43.572 51.6615 41.4061 52.8975C39.12 54.201 36.7023 55.3728 34.2204 56.3768C32.9992 56.8705 31.8964 57.2162 30.8464 57.4334C29.8062 57.6474 29.3898 57.4729 28.2773 57.0121L27.5745 56.7257C27.1137 56.5447 26.6002 56.571 26.1706 56.8031C25.7213 57.0187 25.4382 57.4449 25.3427 57.9255C24.793 60.6971 27.8625 63.6991 29.7404 65.2413C31.8405 66.9644 34.1858 68.0589 36.7319 68.5049C37.0446 70.4158 38.0831 72.394 40.0121 73.2515C41.4505 73.8918 43.2461 73.7815 44.7027 72.9684C44.8524 72.8845 45.0121 72.7858 45.1586 72.6837C45.2129 72.7347 45.2705 72.7858 45.3281 72.8335C45.9206 73.3272 46.9525 73.8819 48.5128 73.7222C49.2583 73.6465 50.152 73.4046 50.947 72.9503C51.2416 72.7808 51.5164 72.5784 51.7715 72.3513L60.1241 86.6453C60.5833 87.4304 61.5988 87.6986 62.3921 87.2444L96.8937 67.5652C97.687 67.1109 97.9585 66.1086 97.501 65.3235ZM74.1713 39.2717C75.1457 37.5501 77.0993 36.4359 78.987 35.3595C81.3998 33.9836 83.7567 32.4184 85.9933 30.71C87.1964 29.79 88.1938 28.8881 89.0431 27.9483C89.4562 27.4924 89.7623 27.0579 89.9911 26.6366C90.2347 27.3443 90.4601 28.187 90.6247 29.1317C91.051 31.5955 90.7366 33.9359 89.6899 36.0903C89.2883 36.9148 89.6372 37.9221 90.47 38.3434C91.5151 38.8717 92.58 40.0403 92.4812 41.0097C92.4286 41.5166 92.0319 42.0679 91.4921 42.3823C91.2995 42.4711 90.7893 42.7427 90.3285 42.5485C89.5286 42.2111 88.6184 42.5271 88.2169 43.2793C87.8169 44.033 88.0572 44.9794 88.7748 45.4699C89.1813 45.748 89.4496 46.0541 89.4924 46.2911C89.5286 46.4886 89.3854 46.7355 89.2603 46.9067C88.89 47.4119 88.2992 47.8366 87.9157 47.8728C87.8383 47.881 87.8021 47.8761 87.7165 47.8004C87.519 47.6259 87.2919 47.5173 87.0549 47.4481L82.5618 39.7605C82.1042 38.9754 81.0888 38.7071 80.2955 39.1597L73.4603 43.0587C73.2299 41.8095 73.434 40.5719 74.1713 39.2717ZM49.655 69.5089C49.6797 69.6175 49.6632 69.6537 49.6188 69.7146C49.3949 70.0257 48.7267 70.3187 48.0997 70.3828C47.8874 70.4042 47.5993 70.4042 47.443 70.2742C47.2587 70.1195 47.1237 69.736 47.0826 69.2489C47.0101 68.3914 46.3008 67.71 45.44 67.6771C44.5809 67.6442 43.8468 68.2646 43.7432 69.1172C43.6823 69.6077 43.1902 69.9088 43.0173 70.0306C42.4709 70.3351 41.7879 70.3993 41.3188 70.1903C40.4202 69.7903 39.9281 68.2959 39.9874 67.1389C40.0351 66.2156 39.3257 65.4124 38.4024 65.3433C35.9913 65.1639 33.7809 64.262 31.8355 62.6655C31.09 62.0516 30.4629 61.4377 29.9659 60.8749C30.4481 60.8897 30.983 60.8436 31.5887 60.7185C32.8362 60.4618 34.1265 60.0602 35.5337 59.4907C38.1506 58.4308 40.7 57.1964 43.1128 55.8205C45.0006 54.7441 46.9542 53.6299 48.9506 53.6579C50.4598 53.6776 51.6464 54.122 52.6274 54.9416L45.7922 58.839C44.9989 59.2916 44.7274 60.2955 45.1849 61.0789L49.6764 68.7666C49.6188 69.0053 49.6007 69.2521 49.655 69.5089ZM62.1683 83.5841L48.888 60.8584L80.5144 42.8201L93.7946 65.5441L62.1683 83.5841ZM80.1309 48.7204C79.6733 47.9353 78.6562 47.667 77.8646 48.1213C77.3083 48.4373 77.2276 48.7714 77.2276 48.7714L70.3135 60.6181L56.5807 60.6214C55.6722 60.6214 54.9348 61.3505 54.9348 62.2672C54.9348 63.184 55.6722 63.9131 56.5807 63.9131L71.2335 63.9328C71.2335 63.9328 71.561 64.0349 72.1223 63.7139C72.4021 63.5526 72.5913 63.3123 72.7329 63.0506L72.7592 63.0638L80.1622 50.3119L80.1358 50.2987C80.3909 49.8149 80.4271 49.2289 80.1309 48.7204Z" fill="#384D68"/>
</svg>
