<svg width="123" height="123" viewBox="0 0 123 123" fill="none" xmlns="http://www.w3.org/2000/svg">
<rect width="123" height="123" rx="20" fill="#E2DFDF"/>
<path d="M100.214 78.1429H23.7381C22.7782 78.1429 22 77.3646 22 76.4048V27.7381C22 26.7782 22.7782 26 23.7381 26H100.214C101.174 26 101.952 26.7782 101.952 27.7381V76.4048C101.952 77.3646 101.174 78.1429 100.214 78.1429Z" fill="#4DA34D"/>
<path d="M86.3096 31.2144H37.6429C37.6429 36.9739 32.9739 41.6429 27.2144 41.6429V62.5001C32.9739 62.5001 37.6429 67.1691 37.6429 72.9286H86.3096C86.3096 67.1691 90.9786 62.5001 96.7382 62.5001V41.6429C90.9786 41.6429 86.3096 36.9739 86.3096 31.2144Z" fill="#9EDB9E"/>
<path d="M61.9762 64.2381C68.6957 64.2381 74.1429 58.7909 74.1429 52.0715C74.1429 45.352 68.6957 39.9048 61.9762 39.9048C55.2568 39.9048 49.8096 45.352 49.8096 52.0715C49.8096 58.7909 55.2568 64.2381 61.9762 64.2381Z" fill="#4DA34D"/>
<path opacity="0.1" d="M63.7144 78.1426H95.0001V74.6664C95.0001 74.0453 94.843 73.4683 94.5716 72.9283C94.843 72.3884 95.0001 71.8114 95.0001 71.1902V65.976C95.0001 65.3548 94.843 64.7778 94.5716 64.2379C94.843 63.6979 95.0001 63.1209 95.0001 62.4998V57.2855C95.0001 56.6644 94.843 56.0874 94.5716 55.5474C94.843 55.0074 95.0001 54.4304 95.0001 53.8093V48.595C95.0001 47.9739 94.843 47.3969 94.5716 46.8569C94.843 46.3169 95.0001 45.7399 95.0001 45.1188V39.9045C95.0001 35.3403 87.1311 32.9521 79.3572 32.9521C71.5833 32.9521 63.7144 35.3403 63.7144 39.9045V45.1188C63.7144 45.7399 63.8715 46.3169 64.1428 46.8569C63.8715 47.3969 63.7144 47.9739 63.7144 48.595V53.8093C63.7144 54.4304 63.8715 55.0074 64.1428 55.5474C63.8715 56.0874 63.7144 56.6644 63.7144 57.2855V62.4998C63.7144 63.1209 63.8715 63.6979 64.1428 64.2379C63.8715 64.7778 63.7144 65.3548 63.7144 65.976V71.1902C63.7144 71.8114 63.8715 72.3884 64.1428 72.9283C63.8715 73.4683 63.7144 74.0453 63.7144 74.6664V78.1426Z" fill="black"/>
<path d="M96.738 85.0952H68.9285C67.9687 85.0952 67.1904 85.8734 67.1904 86.8333V92.0476C67.1904 96.6118 75.0594 99 82.8333 99C90.6072 99 98.4761 96.6118 98.4761 92.0476V86.8333C98.4761 85.8734 97.6979 85.0952 96.738 85.0952Z" fill="#D8BC48"/>
<path d="M82.8333 79.8809C75.0594 79.8809 67.1904 82.269 67.1904 86.8332C67.1904 91.3974 75.0594 93.7856 82.8333 93.7856C90.6072 93.7856 98.4761 91.3974 98.4761 86.8332C98.4761 82.269 90.6072 79.8809 82.8333 79.8809Z" fill="#EFD358"/>
<path d="M96.738 76.4048H68.9285C67.9687 76.4048 67.1904 77.183 67.1904 78.1429V83.3572C67.1904 87.9214 75.0594 90.3095 82.8333 90.3095C90.6072 90.3095 98.4761 87.9214 98.4761 83.3572V78.1429C98.4761 77.183 97.6979 76.4048 96.738 76.4048Z" fill="#D8BC48"/>
<path d="M82.8333 71.1904C75.0594 71.1904 67.1904 73.5786 67.1904 78.1428C67.1904 82.707 75.0594 85.0952 82.8333 85.0952C90.6072 85.0952 98.4761 82.707 98.4761 78.1428C98.4761 73.5786 90.6072 71.1904 82.8333 71.1904Z" fill="#EFD358"/>
<path d="M96.738 67.7144H68.9285C67.9687 67.7144 67.1904 68.4926 67.1904 69.4525V74.6667C67.1904 79.2309 75.0594 81.6191 82.8333 81.6191C90.6072 81.6191 98.4761 79.2309 98.4761 74.6667V69.4525C98.4761 68.4926 97.6979 67.7144 96.738 67.7144Z" fill="#D8BC48"/>
<path d="M82.8333 62.5C75.0594 62.5 67.1904 64.8882 67.1904 69.4524C67.1904 74.0166 75.0594 76.4048 82.8333 76.4048C90.6072 76.4048 98.4761 74.0166 98.4761 69.4524C98.4761 64.8882 90.6072 62.5 82.8333 62.5Z" fill="#EFD358"/>
<path d="M96.738 59.0239H68.9285C67.9687 59.0239 67.1904 59.8022 67.1904 60.762V65.9763C67.1904 70.5405 75.0594 72.9287 82.8333 72.9287C90.6072 72.9287 98.4761 70.5405 98.4761 65.9763V60.762C98.4761 59.8022 97.6979 59.0239 96.738 59.0239Z" fill="#D8BC48"/>
<path d="M82.8333 53.8096C75.0594 53.8096 67.1904 56.1977 67.1904 60.762C67.1904 65.3262 75.0594 67.7143 82.8333 67.7143C90.6072 67.7143 98.4761 65.3262 98.4761 60.762C98.4761 56.1977 90.6072 53.8096 82.8333 53.8096Z" fill="#EFD358"/>
<path d="M96.636 50.1543H68.8265C67.8666 50.1543 67.0884 50.9325 67.0884 51.8924V57.1067C67.0884 61.6709 74.9573 64.0591 82.7312 64.0591C90.5051 64.0591 98.3741 61.6709 98.3741 57.1067V51.8924C98.3741 50.9325 97.5959 50.1543 96.636 50.1543Z" fill="#D8BC48"/>
<path d="M82.8333 45.1191C75.0594 45.1191 67.1904 47.5073 67.1904 52.0715C67.1904 56.6357 75.0594 59.0239 82.8333 59.0239C90.6072 59.0239 98.4761 56.6357 98.4761 52.0715C98.4761 47.5073 90.6072 45.1191 82.8333 45.1191Z" fill="#EFD358"/>
<path d="M96.738 41.6431H68.9285C67.9687 41.6431 67.1904 42.4213 67.1904 43.3812V48.5954C67.1904 53.1597 75.0594 55.5478 82.8333 55.5478C90.6072 55.5478 98.4761 53.1597 98.4761 48.5954V43.3812C98.4761 42.4213 97.6979 41.6431 96.738 41.6431Z" fill="#D8BC48"/>
<path d="M82.8333 36.4282C75.0594 36.4282 67.1904 38.8164 67.1904 43.3806C67.1904 47.9448 75.0594 50.333 82.8333 50.333C90.6072 50.333 98.4761 47.9448 98.4761 43.3806C98.4761 38.8164 90.6072 36.4282 82.8333 36.4282Z" fill="#EFD358"/>
</svg>
