<svg width="123" height="123" viewBox="0 0 123 123" fill="none" xmlns="http://www.w3.org/2000/svg">
<rect width="123" height="123" rx="20" fill="#E2DFDF"/>
<path d="M79.6664 66.584L82.5831 101.584L62.1662 89.9176L38.8325 101.584L44.6659 66.584H79.6664Z" fill="#C65255"/>
<path d="M56.3332 89.9176L59.0544 91.4722L62.1666 89.9176L76.4584 98.0844L73.8334 66.584H44.6663L39.3638 98.4023L56.3332 89.9176Z" fill="#F67070"/>
<path d="M37.4094 37.4167C41.0144 27.2228 50.7358 19.9165 62.1664 19.9165C76.6653 19.9165 88.4167 31.6679 88.4167 46.1668C88.4167 60.6658 76.6653 72.4172 62.1664 72.4172C47.6674 72.4172 35.916 60.6658 35.916 46.1668C35.916 43.0985 36.441 40.1526 37.4094 37.4167Z" fill="#D5AC51"/>
<path d="M57.7242 20.2988C48.2712 21.9118 40.5361 28.5706 37.4094 37.4141C36.441 40.1528 35.916 43.0987 35.916 46.1671C35.916 59.1698 45.3807 69.9382 57.7913 72.0237C70.2019 69.9382 79.6666 59.1698 79.6666 46.1671C79.6666 33.1411 70.1669 22.358 57.7242 20.2988Z" fill="#E6BB5B"/>
<path d="M62.1671 75.3341C46.0843 75.3341 33 62.2498 33 46.1671C33 42.8362 33.5571 39.5636 34.6567 36.4457H34.6596C38.7722 24.8139 49.8294 17 62.1671 17C78.2498 17 91.3341 30.0843 91.3341 46.1671C91.3341 62.2498 78.2498 75.3341 62.1671 75.3341ZM40.1605 38.3882C39.2797 40.882 38.8334 43.4983 38.8334 46.1671C38.8334 59.0326 49.3015 69.5007 62.1671 69.5007C75.0326 69.5007 85.5007 59.0326 85.5007 46.1671C85.5007 33.3015 75.0326 22.8334 62.1671 22.8334C52.294 22.8334 43.4506 29.0839 40.1605 38.3882Z" fill="#384D68"/>
<path d="M38.8328 104.501C38.2203 104.501 37.6107 104.308 37.1002 103.929C36.2165 103.279 35.7761 102.185 35.954 101.103L41.7874 66.1025L47.542 67.0621L42.6536 96.4159L60.8626 87.3099C61.7347 86.8753 62.7702 86.9045 63.6131 87.3857L79.2175 96.3021L76.7616 66.8288L82.5717 66.3446L85.4884 101.345C85.5788 102.424 85.0625 103.466 84.1496 104.046C83.2396 104.629 82.0817 104.658 81.1367 104.119L62.076 93.2279L40.1394 104.198C39.7253 104.399 39.2761 104.501 38.8328 104.501Z" fill="#384D68"/>
<path d="M62.1662 63.6675C52.5149 63.6675 44.666 55.8186 44.666 46.1672C44.666 36.5158 52.5149 28.667 62.1662 28.667C71.8176 28.667 79.6665 36.5158 79.6665 46.1672C79.6665 55.8186 71.8176 63.6675 62.1662 63.6675ZM62.1662 34.5004C55.732 34.5004 50.4994 39.733 50.4994 46.1672C50.4994 52.6015 55.732 57.834 62.1662 57.834C68.6005 57.834 73.8331 52.6015 73.8331 46.1672C73.8331 39.733 68.6005 34.5004 62.1662 34.5004Z" fill="#384D68"/>
</svg>
